<mxfile host="65bd71144e">
    <diagram id="aXhBY2E5ZhJrES6r0FrB" name="Page-1">
        <mxGraphModel dx="1779" dy="764" grid="1" gridSize="10" guides="1" tooltips="1" connect="1" arrows="1" fold="1" page="1" pageScale="1" pageWidth="850" pageHeight="1100" math="0" shadow="0">
            <root>
                <mxCell id="0"/>
                <mxCell id="1" parent="0"/>
                <mxCell id="29" value="" style="rounded=0;whiteSpace=wrap;html=1;fillColor=default;" parent="1" vertex="1">
                    <mxGeometry x="-40" y="40" width="600" height="640" as="geometry"/>
                </mxCell>
                <mxCell id="19" style="edgeStyle=none;html=1;exitX=0.75;exitY=0;exitDx=0;exitDy=0;entryX=0.5;entryY=1;entryDx=0;entryDy=0;endArrow=none;endFill=0;startArrow=classic;startFill=1;" parent="1" source="2" target="18" edge="1">
                    <mxGeometry relative="1" as="geometry">
                        <Array as="points">
                            <mxPoint x="290" y="240"/>
                            <mxPoint x="380" y="240"/>
                        </Array>
                    </mxGeometry>
                </mxCell>
                <mxCell id="22" value="SQL" style="edgeLabel;html=1;align=center;verticalAlign=middle;resizable=0;points=[];" parent="19" vertex="1" connectable="0">
                    <mxGeometry x="0.4194" y="2" relative="1" as="geometry">
                        <mxPoint x="2" y="-20" as="offset"/>
                    </mxGeometry>
                </mxCell>
                <mxCell id="26" value="RestAPI/Websockets" style="edgeStyle=none;html=1;exitX=0.25;exitY=0;exitDx=0;exitDy=0;entryX=0.5;entryY=1;entryDx=0;entryDy=0;startArrow=none;startFill=0;endArrow=classic;endFill=1;" parent="1" source="2" target="20" edge="1">
                    <mxGeometry x="0.619" relative="1" as="geometry">
                        <Array as="points">
                            <mxPoint x="230" y="240"/>
                            <mxPoint x="140" y="240"/>
                        </Array>
                        <mxPoint as="offset"/>
                    </mxGeometry>
                </mxCell>
                <mxCell id="2" value="Raspberrpy pi" style="rounded=0;whiteSpace=wrap;html=1;" parent="1" vertex="1">
                    <mxGeometry x="200" y="280" width="120" height="80" as="geometry"/>
                </mxCell>
                <mxCell id="17" value="Serial" style="edgeStyle=none;html=1;entryX=1;entryY=0.5;entryDx=0;entryDy=0;" parent="1" source="3" target="2" edge="1">
                    <mxGeometry x="0.3333" relative="1" as="geometry">
                        <Array as="points">
                            <mxPoint x="420" y="320"/>
                        </Array>
                        <mxPoint as="offset"/>
                    </mxGeometry>
                </mxCell>
                <mxCell id="3" value="Device 1" style="rounded=0;whiteSpace=wrap;html=1;" parent="1" vertex="1">
                    <mxGeometry x="360" y="400" width="120" height="80" as="geometry"/>
                </mxCell>
                <mxCell id="14" value="Serial" style="edgeStyle=none;html=1;entryX=0.5;entryY=1;entryDx=0;entryDy=0;" parent="1" source="4" target="2" edge="1">
                    <mxGeometry relative="1" as="geometry"/>
                </mxCell>
                <mxCell id="4" value="Scanner" style="rounded=0;whiteSpace=wrap;html=1;" parent="1" vertex="1">
                    <mxGeometry x="200" y="400" width="120" height="80" as="geometry"/>
                </mxCell>
                <mxCell id="16" value="Serial" style="edgeStyle=none;html=1;entryX=0;entryY=0.5;entryDx=0;entryDy=0;" parent="1" source="5" target="2" edge="1">
                    <mxGeometry x="0.4444" relative="1" as="geometry">
                        <Array as="points">
                            <mxPoint x="100" y="320"/>
                        </Array>
                        <mxPoint as="offset"/>
                    </mxGeometry>
                </mxCell>
                <mxCell id="5" value="Device 2" style="rounded=0;whiteSpace=wrap;html=1;" parent="1" vertex="1">
                    <mxGeometry x="40" y="400" width="120" height="80" as="geometry"/>
                </mxCell>
                <mxCell id="8" value="Browser" style="rounded=0;whiteSpace=wrap;html=1;" parent="1" vertex="1">
                    <mxGeometry x="40" y="560" width="120" height="80" as="geometry"/>
                </mxCell>
                <mxCell id="12" style="edgeStyle=none;html=1;entryX=0.5;entryY=1;entryDx=0;entryDy=0;" parent="1" source="9" target="4" edge="1">
                    <mxGeometry relative="1" as="geometry"/>
                </mxCell>
                <mxCell id="13" style="edgeStyle=none;html=1;entryX=1;entryY=0.5;entryDx=0;entryDy=0;" parent="1" source="9" target="8" edge="1">
                    <mxGeometry relative="1" as="geometry"/>
                </mxCell>
                <mxCell id="9" value="Actor" style="shape=umlActor;verticalLabelPosition=bottom;verticalAlign=top;html=1;outlineConnect=0;rounded=1;dashed=1;fillColor=none;" parent="1" vertex="1">
                    <mxGeometry x="245" y="570" width="30" height="60" as="geometry"/>
                </mxCell>
                <mxCell id="18" value="Configuration Server" style="rounded=0;whiteSpace=wrap;html=1;" parent="1" vertex="1">
                    <mxGeometry x="320" y="80" width="120" height="80" as="geometry"/>
                </mxCell>
                <mxCell id="20" value="Backend" style="rounded=0;whiteSpace=wrap;html=1;" parent="1" vertex="1">
                    <mxGeometry x="80" y="80" width="120" height="80" as="geometry"/>
                </mxCell>
                <mxCell id="27" value="" style="rounded=0;whiteSpace=wrap;html=1;dashed=1;fillColor=none;" parent="1" vertex="1">
                    <mxGeometry y="260" width="520" height="280" as="geometry"/>
                </mxCell>
                <mxCell id="28" value="Bench" style="text;html=1;align=center;verticalAlign=middle;resizable=0;points=[];autosize=1;strokeColor=none;fillColor=none;" parent="1" vertex="1">
                    <mxGeometry x="450" y="270" width="60" height="30" as="geometry"/>
                </mxCell>
            </root>
        </mxGraphModel>
    </diagram>
</mxfile>